<svg version="1.1" xmlns="http://www.w3.org/2000/svg" xmlns:xlink="http://www.w3.org/1999/xlink" preserveAspectRatio="xMidYMid meet" viewBox="826 424 298 75"><g data-item-type="text" data-item="Business" id="logo__item--business" class="logo__item">
                <g class="logo__item__inner" transform="translate(955.5119247436523 478.4081393101442) scale(1.6768438509591619 1.6768438509591619) rotate(0 0 0)">
                    <text data-part-id="logo__item--business" dy="0" dominant-baseline="auto" alignment-baseline="auto" font-family="Montserrat" font-size="32px" fill="white" letter-spacing="0" font-weight="bold" font-style="normal" data-font-family="Montserrat" data-font-weight="bold" data-font-style="normal" data-ttf-url="/builder_assets/fontsttf/font-montserrat-bold-normal.ttf" data-font-filename="montserrat-bold-normal">SUMA</text>
                </g>
            </g><g data-item-type="image" data-item="Image" data-logo-item="" id="logo__item--logo_0" class="logo__item">
    <g class="logo__item__inner" transform="translate(820.3011205509764 392) scale(1.4448523900090244 1.4448523900090244) rotate(10.923813194006177 46.64187529881795 37.56775558910643)">
        
<g>
	<g>
		<path fill="#28a745
" d="M83.85,66.232c-0.764,0.148-1.509-0.357-1.652-1.123c-0.146-0.768,0.358-1.508,1.122-1.655    c1.83-0.35,3.153-1.809,2.89-3.187l-7.024-36.801c-0.264-1.377-2.026-2.245-3.855-1.895c-0.769,0.144-1.508-0.357-1.657-1.126    c-0.147-0.765,0.358-1.509,1.122-1.653c3.396-0.649,6.61,1.213,7.173,4.144l7.021,36.802    C89.551,62.673,87.245,65.587,83.85,66.232z" data-part-id="logo__item--logo_0__0"></path>
		<path fill="#28a745
" d="M20.297,78.362c-3.396,0.649-6.609-1.212-7.169-4.143L6.104,37.418c-0.558-2.935,1.743-5.85,5.138-6.495    c0.765-0.148,1.508,0.357,1.653,1.122c0.147,0.769-0.354,1.509-1.122,1.657c-1.83,0.349-3.153,1.808-2.89,3.186l7.025,36.801    c0.263,1.378,2.031,2.244,3.859,1.896c0.765-0.144,1.509,0.357,1.653,1.126C21.567,77.475,21.062,78.218,20.297,78.362z" data-part-id="logo__item--logo_0__1"></path>
	</g>
	<g>
		
			<radialGradient id="SVGID_1_" cx="-81.1274" cy="-243.5273" r="21.0549" gradientTransform="matrix(0.9823 -0.1875 0.1875 0.9823 149.0663 255.4096)" gradientUnits="userSpaceOnUse">
			<stop offset="0" style="stop-color:#575759"></stop>
			<stop offset="0.631" style="stop-color:#363435"></stop>
			<stop offset="1" style="stop-color:#272525"></stop>
		</radialGradient>
		<path fill-rule="evenodd" clip-rule="evenodd" fill="#28a745
" d="M30.689,44.2l-8.924,1.702    c-0.312,0.062-0.514,0.362-0.456,0.67l1.286,6.741c0.062,0.308,0.362,0.514,0.67,0.456l8.924-1.706    c0.308-0.058,0.514-0.357,0.457-0.67l-1.287-6.737C31.297,44.344,30.997,44.138,30.689,44.2z M31.787,51.027    c0.053,0.268-0.124,0.523-0.387,0.572l-7.572,1.446c-0.267,0.05-0.522-0.124-0.571-0.39l-1.093-5.719    c-0.05-0.263,0.127-0.518,0.39-0.571l7.571-1.442c0.263-0.049,0.518,0.123,0.571,0.386L31.787,51.027z" data-part-id="logo__item--logo_0__2"></path>
		
		<mask maskUnits="userSpaceOnUse" x="21.479" y="44.256" width="11.354" height="9.588" id="SVGID_2_">
			<g filter="url(#Adobe_OpacityMaskFilter)">
				<defs>
					<filter id="Adobe_OpacityMaskFilter_1_" filterUnits="userSpaceOnUse" x="21.479" y="44.256" width="11.354" height="9.588">
						<feFlood style="flood-color:white;flood-opacity:1" result="back"></feFlood>
						<feBlend in="SourceGraphic" in2="back" mode="normal"></feBlend>
					</filter>
				</defs>
				<mask maskUnits="userSpaceOnUse" x="21.479" y="44.256" width="11.354" height="9.588" id="SVGID_2_">
					<g filter="url(#Adobe_OpacityMaskFilter_1_)">
					</g>
				</mask>
				
					<linearGradient id="SVGID_3_" gradientUnits="userSpaceOnUse" x1="-81.0566" y1="-231.4453" x2="-81.0566" y2="-222.8853" gradientTransform="matrix(0.9823 -0.1875 0.1875 0.9823 149.0663 255.4096)">
					<stop offset="0" style="stop-color:#FFFFFF"></stop>
					<stop offset="0.0524" style="stop-color:#E8E8E8"></stop>
					<stop offset="0.2031" style="stop-color:#ABABAB"></stop>
					<stop offset="0.3529" style="stop-color:#777777"></stop>
					<stop offset="0.4983" style="stop-color:#4C4C4C"></stop>
					<stop offset="0.6383" style="stop-color:#2B2B2B"></stop>
					<stop offset="0.7716" style="stop-color:#131313"></stop>
					<stop offset="0.8952" style="stop-color:#050505"></stop>
					<stop offset="1" style="stop-color:#000000"></stop>
				</linearGradient>
				<path mask="url(#SVGID_2_)" fill-rule="evenodd" clip-rule="evenodd" fill="#28a745
" d="M30.865,44.266l-8.919,1.702      c-0.312,0.062-0.518,0.362-0.457,0.67l1.283,6.741c0.062,0.309,0.362,0.514,0.674,0.457l8.919-1.707      c0.312-0.057,0.519-0.357,0.457-0.67l-1.287-6.736C31.478,44.41,31.178,44.208,30.865,44.266z M31.967,51.094      c0.05,0.268-0.124,0.521-0.387,0.571l-7.576,1.446c-0.263,0.05-0.518-0.123-0.567-0.391l-1.093-5.717      c-0.05-0.263,0.123-0.518,0.386-0.571l7.576-1.443c0.263-0.05,0.518,0.123,0.567,0.386L31.967,51.094z" data-part-id="logo__item--logo_0__3"></path>
			</g>
		</mask>
		
			<linearGradient id="SVGID_4_" gradientUnits="userSpaceOnUse" x1="-81.0566" y1="-231.4453" x2="-81.0566" y2="-222.8853" gradientTransform="matrix(0.9823 -0.1875 0.1875 0.9823 149.0663 255.4096)">
			<stop offset="0" style="stop-color:#FFFFFF"></stop>
			<stop offset="1" style="stop-color:#FFFFFF"></stop>
		</linearGradient>
		<path fill-rule="evenodd" clip-rule="evenodd" fill="#28a745
" d="M30.865,44.266l-8.919,1.702    c-0.312,0.062-0.518,0.362-0.457,0.67l1.283,6.741c0.062,0.309,0.362,0.514,0.674,0.457l8.919-1.707    c0.312-0.057,0.519-0.357,0.457-0.67l-1.287-6.736C31.478,44.41,31.178,44.208,30.865,44.266z" data-part-id="logo__item--logo_0__4"></path>
		<path fill-rule="evenodd" clip-rule="evenodd" fill="#28a745
" d="M52.508,67.235c5.906-0.505,9.836-3.889,11.899-7.118    c1.633-2.558,2.849-6.767,2.129-11.125c-0.703-4.237-3.247-7.633-6.01-9.651c-3.304-2.421-7.776-4.041-13.716-2.4    c-4.012,1.106-6.766,3.802-8.604,6.577c-1.842,2.771-2.853,6.543-2.208,10.708c0.617,3.963,3.004,7.461,5.093,9.318    C43.711,65.871,47.912,67.625,52.508,67.235z M42.967,62.677c-3.28-2.474-5.916-7.563-5.257-12.858    c0.69-5.565,5.684-11.332,12.824-11.632c6.211-0.263,12.267,3.42,13.963,9.922c1.349,5.163-0.237,9.208-2.231,11.905    c-1.759,2.376-5.117,4.924-9.269,5.339C48.853,65.771,45.737,64.765,42.967,62.677z" data-part-id="logo__item--logo_0__5"></path>
		<defs>
			<filter id="Adobe_OpacityMaskFilter_2_" filterUnits="userSpaceOnUse" x="36.097" y="36.475" width="30.945" height="31.012">
				<feFlood style="flood-color:white;flood-opacity:1" result="back"></feFlood>
				<feBlend in="SourceGraphic" in2="back" mode="normal"></feBlend>
			</filter>
		</defs>
		<mask maskUnits="userSpaceOnUse" x="36.097" y="36.475" width="30.945" height="31.012" id="SVGID_5_">
			<g filter="url(#Adobe_OpacityMaskFilter_2_)">
				<defs>
					<filter id="Adobe_OpacityMaskFilter_3_" filterUnits="userSpaceOnUse" x="36.097" y="36.475" width="30.945" height="31.012">
						<feFlood style="flood-color:white;flood-opacity:1" result="back"></feFlood>
						<feBlend in="SourceGraphic" in2="back" mode="normal"></feBlend>
					</filter>
				</defs>
				<mask maskUnits="userSpaceOnUse" x="36.097" y="36.475" width="30.945" height="31.012" id="SVGID_5_">
					<g filter="url(#Adobe_OpacityMaskFilter_3_)">
					</g>
				</mask>
				
					<linearGradient id="SVGID_6_" gradientUnits="userSpaceOnUse" x1="-57.603" y1="-251.229" x2="-57.603" y2="-209.09" gradientTransform="matrix(0.9823 -0.1875 0.1875 0.9823 149.0663 255.4096)">
					<stop offset="0" style="stop-color:#FFFFFF"></stop>
					<stop offset="0.0524" style="stop-color:#E8E8E8"></stop>
					<stop offset="0.2031" style="stop-color:#ABABAB"></stop>
					<stop offset="0.3529" style="stop-color:#777777"></stop>
					<stop offset="0.4983" style="stop-color:#4C4C4C"></stop>
					<stop offset="0.6383" style="stop-color:#2B2B2B"></stop>
					<stop offset="0.7716" style="stop-color:#131313"></stop>
					<stop offset="0.8952" style="stop-color:#050505"></stop>
					<stop offset="1" style="stop-color:#000000"></stop>
				</linearGradient>
				<path mask="url(#SVGID_5_)" fill-rule="evenodd" clip-rule="evenodd" fill="#28a745
" d="M52.799,67.433      c5.911-0.501,9.841-3.889,11.904-7.119c1.628-2.554,2.849-6.762,2.126-11.12c-0.7-4.237-3.248-7.637-6.006-9.655      c-3.309-2.42-7.782-4.036-13.721-2.4c-4.008,1.11-6.767,3.807-8.604,6.577c-1.837,2.771-2.853,6.548-2.208,10.712      c0.617,3.962,3.004,7.455,5.093,9.317C44.003,66.072,48.204,67.823,52.799,67.433z M43.259,62.874      c-3.28-2.47-5.915-7.563-5.257-12.858c0.69-5.561,5.685-11.328,12.825-11.632c6.215-0.263,12.266,3.42,13.964,9.922      c1.348,5.167-0.239,9.211-2.232,11.909c-1.755,2.376-5.118,4.92-9.265,5.339C49.145,65.97,46.033,64.966,43.259,62.874z" data-part-id="logo__item--logo_0__6"></path>
			</g>
		</mask>
		
			<linearGradient id="SVGID_7_" gradientUnits="userSpaceOnUse" x1="-57.603" y1="-251.229" x2="-57.603" y2="-209.09" gradientTransform="matrix(0.9823 -0.1875 0.1875 0.9823 149.0663 255.4096)">
			<stop offset="0" style="stop-color:#FFFFFF"></stop>
			<stop offset="1" style="stop-color:#FFFFFF"></stop>
		</linearGradient>
		<path fill-rule="evenodd" clip-rule="evenodd" fill="#28a745
" d="M52.799,67.433c5.911-0.501,9.841-3.889,11.904-7.119    c1.628-2.554,2.849-6.762,2.126-11.12c-0.7-4.237-3.248-7.637-6.006-9.655c-3.309-2.42-7.782-4.036-13.721-2.4    c-4.008,1.11-6.767,3.807-8.604,6.577c-1.837,2.771-2.853,6.548-2.208,10.712c0.617,3.962,3.004,7.455,5.093,9.317    C44.003,66.072,48.204,67.823,52.799,67.433z M43.259,62.874c-3.28-2.47-5.915-7.563-5.257-12.858    c0.69-5.561,5.685-11.328,12.825-11.632c6.215-0.263,12.266,3.42,13.964,9.922c1.348,5.167-0.239,9.211-2.232,11.909    c-1.755,2.376-5.118,4.92-9.265,5.339C49.145,65.97,46.033,64.966,43.259,62.874z" data-part-id="logo__item--logo_0__7"></path>
		<path fill-rule="evenodd" clip-rule="evenodd" fill="#28a745
" d="M52.997,65.353c4.151-0.415,7.51-2.963,9.269-5.339    c1.994-2.696,3.58-6.742,2.231-11.905c-1.696-6.502-7.752-10.186-13.963-9.922c-7.14,0.3-12.134,6.067-12.824,11.632    c-0.658,5.294,1.977,10.384,5.257,12.858C45.737,64.765,48.853,65.771,52.997,65.353z" data-part-id="logo__item--logo_0__8"></path>
		
			<radialGradient id="SVGID_8_" cx="-61.3735" cy="-225.4102" r="23.8562" gradientTransform="matrix(0.9823 -0.1875 0.1875 0.9823 149.0663 255.4096)" gradientUnits="userSpaceOnUse">
			<stop offset="0" style="stop-color:#FFFFFF"></stop>
			<stop offset="0.012" style="stop-color:#FCF4EA"></stop>
			<stop offset="0.0401" style="stop-color:#F5DDBE"></stop>
			<stop offset="0.0703" style="stop-color:#EFC898"></stop>
			<stop offset="0.1023" style="stop-color:#EAB777"></stop>
			<stop offset="0.1366" style="stop-color:#E6A95D"></stop>
			<stop offset="0.1741" style="stop-color:#E39E48"></stop>
			<stop offset="0.2164" style="stop-color:#E1973A"></stop>
			<stop offset="0.2675" style="stop-color:#DF9232"></stop>
			<stop offset="0.3515" style="stop-color:#DF912F"></stop>
			<stop offset="0.8242" style="stop-color:#A24725"></stop>
			<stop offset="1" style="stop-color:#A24725"></stop>
		</radialGradient>
		<path fill-rule="evenodd" clip-rule="evenodd" fill="white" d="M21.415,66.874c1.591,0.164,1.09-1.414,0.81-2.874    c-0.542-2.845-1.102-5.774-1.644-8.615c-0.666-3.481-2.318-8.809-1.509-11.024c0.921-2.52,5.282-3.05,9.302-3.814    c3.873-0.74,8.209-1.188,10.667-2.89c1.697-1.171,2.89-2.75,3.478-4.489c0.127-0.374,0.16-1.048,0.67-1.402    c0.793-0.555,2.997-0.744,4.476-1.028c1.53-0.292,3.354-1.043,4.612-0.793c0.876,0.177,1.435,1.846,1.896,2.359    c0.62,0.694,1.919,1.677,2.93,1.994c3.733,1.164,9.861-1.714,13.359,0.086c2.951,1.513,3.312,8.447,4.242,13.306    c0.264,1.385,0.633,3.322,0.938,4.924c0.407,2.116,0.415,3.95,1.805,3.65c1.417-0.305,0.518-2.614,0.229-4.123    c-0.868-4.559-1.66-9.964-2.676-14.457c-1.143-5.08-4.636-6.334-9.853-5.775c-2.24,0.239-4.995,0.913-7.046,0.494    c-0.81-0.161-1.73-0.802-2.314-1.426c-1.225-1.315-1.355-2.779-3.395-3.096c-1.004-0.156-3.087,0.506-5.02,0.872    c-2.527,0.485-4.826,0.666-5.878,1.718c-0.735,0.74-0.826,2.068-1.303,2.972c-0.39,0.744-1.443,1.903-2.248,2.47    c-2.413,1.69-6.425,1.904-9.882,2.565c-4.34,0.831-8.841,1.62-10.498,4.213c-1.517,2.376-0.145,7.271,0.715,11.772    c0.497,2.594,0.756,3.967,1.237,6.482C19.812,62.5,20.17,66.746,21.415,66.874z" data-part-id="logo__item--logo_0__9"></path>
		<g>
			
				<radialGradient id="SVGID_9_" cx="-58.626" cy="-231.2881" r="39.2448" gradientTransform="matrix(0.9823 -0.1875 0.1875 0.9823 149.0663 255.4096)" gradientUnits="userSpaceOnUse">
				<stop offset="0" style="stop-color:#FFFFFF"></stop>
				<stop offset="0.012" style="stop-color:#FCF4EA"></stop>
				<stop offset="0.0401" style="stop-color:#F5DDBE"></stop>
				<stop offset="0.0703" style="stop-color:#EFC898"></stop>
				<stop offset="0.1023" style="stop-color:#EAB777"></stop>
				<stop offset="0.1366" style="stop-color:#E6A95D"></stop>
				<stop offset="0.1741" style="stop-color:#E39E48"></stop>
				<stop offset="0.2164" style="stop-color:#E1973A"></stop>
				<stop offset="0.2675" style="stop-color:#DF9232"></stop>
				<stop offset="0.3515" style="stop-color:#DF912F"></stop>
				<stop offset="0.8242" style="stop-color:#A24725"></stop>
				<stop offset="1" style="stop-color:#A24725"></stop>
			</radialGradient>
			<path fill-rule="evenodd" clip-rule="evenodd" fill="#28a745
" d="M57.789,41.035c0.58,3.354,0.276,6.116-0.028,8.875     c-3.297-4.135-7.111-7.501-11.999-9.29C49.704,38.265,55.134,39.095,57.789,41.035z" data-part-id="logo__item--logo_0__10"></path>
			
				<radialGradient id="SVGID_10_" cx="-58.6265" cy="-231.2881" r="39.246" gradientTransform="matrix(0.9823 -0.1875 0.1875 0.9823 149.0663 255.4096)" gradientUnits="userSpaceOnUse">
				<stop offset="0" style="stop-color:#FFFFFF"></stop>
				<stop offset="0.012" style="stop-color:#FCF4EA"></stop>
				<stop offset="0.0401" style="stop-color:#F5DDBE"></stop>
				<stop offset="0.0703" style="stop-color:#EFC898"></stop>
				<stop offset="0.1023" style="stop-color:#EAB777"></stop>
				<stop offset="0.1366" style="stop-color:#E6A95D"></stop>
				<stop offset="0.1741" style="stop-color:#E39E48"></stop>
				<stop offset="0.2164" style="stop-color:#E1973A"></stop>
				<stop offset="0.2675" style="stop-color:#DF9232"></stop>
				<stop offset="0.3515" style="stop-color:#DF912F"></stop>
				<stop offset="0.8242" style="stop-color:#A24725"></stop>
				<stop offset="1" style="stop-color:#A24725"></stop>
			</radialGradient>
			<path fill-rule="evenodd" clip-rule="evenodd" fill="#28a745
" d="M52.84,45.429c-5.98,0.572-10.695,2.857-13.959,5.62     c-0.037-4.21,2.725-8.341,6.071-10.153c0.674-0.362,3.688,1.41,4.423,1.866C50.772,43.633,52.019,44.574,52.84,45.429z" data-part-id="logo__item--logo_0__11"></path>
			
				<radialGradient id="SVGID_11_" cx="-58.6279" cy="-231.2871" r="39.2444" gradientTransform="matrix(0.9823 -0.1875 0.1875 0.9823 149.0663 255.4096)" gradientUnits="userSpaceOnUse">
				<stop offset="0" style="stop-color:#FFFFFF"></stop>
				<stop offset="0.012" style="stop-color:#FCF4EA"></stop>
				<stop offset="0.0401" style="stop-color:#F5DDBE"></stop>
				<stop offset="0.0703" style="stop-color:#EFC898"></stop>
				<stop offset="0.1023" style="stop-color:#EAB777"></stop>
				<stop offset="0.1366" style="stop-color:#E6A95D"></stop>
				<stop offset="0.1741" style="stop-color:#E39E48"></stop>
				<stop offset="0.2164" style="stop-color:#E1973A"></stop>
				<stop offset="0.2675" style="stop-color:#DF9232"></stop>
				<stop offset="0.3515" style="stop-color:#DF912F"></stop>
				<stop offset="0.8242" style="stop-color:#A24725"></stop>
				<stop offset="1" style="stop-color:#A24725"></stop>
			</radialGradient>
			<path fill-rule="evenodd" clip-rule="evenodd" fill="#28a745
" d="M58.213,41.323c3.062,1.776,5.651,5.57,5.746,10.728     c-2.358,1.723-4.715,3.211-7.683,4.301c-0.209-0.457,0.197-0.896,0.37-1.304C58.113,51.615,59.055,46.469,58.213,41.323z" data-part-id="logo__item--logo_0__12"></path>
			
				<radialGradient id="SVGID_12_" cx="-58.626" cy="-231.2856" r="39.2397" gradientTransform="matrix(0.9823 -0.1875 0.1875 0.9823 149.0663 255.4096)" gradientUnits="userSpaceOnUse">
				<stop offset="0" style="stop-color:#FFFFFF"></stop>
				<stop offset="0.012" style="stop-color:#FCF4EA"></stop>
				<stop offset="0.0401" style="stop-color:#F5DDBE"></stop>
				<stop offset="0.0703" style="stop-color:#EFC898"></stop>
				<stop offset="0.1023" style="stop-color:#EAB777"></stop>
				<stop offset="0.1366" style="stop-color:#E6A95D"></stop>
				<stop offset="0.1741" style="stop-color:#E39E48"></stop>
				<stop offset="0.2164" style="stop-color:#E1973A"></stop>
				<stop offset="0.2675" style="stop-color:#DF9232"></stop>
				<stop offset="0.3515" style="stop-color:#DF912F"></stop>
				<stop offset="0.8242" style="stop-color:#A24725"></stop>
				<stop offset="1" style="stop-color:#A24725"></stop>
			</radialGradient>
			<path fill-rule="evenodd" clip-rule="evenodd" fill="#28a745
" d="M46.416,47.271c0.25,0.477-0.292,0.863-0.485,1.323     c-1.521,3.577-2.06,8.32-1.64,13.372c-0.259,0.275-1.056-0.41-1.509-0.823c-2.092-1.881-4.069-5.342-4.045-9.572     C40.924,49.885,43.37,48.373,46.416,47.271z" data-part-id="logo__item--logo_0__13"></path>
			
				<radialGradient id="SVGID_13_" cx="-58.627" cy="-231.2896" r="39.2461" gradientTransform="matrix(0.9823 -0.1875 0.1875 0.9823 149.0663 255.4096)" gradientUnits="userSpaceOnUse">
				<stop offset="0" style="stop-color:#FFFFFF"></stop>
				<stop offset="0.012" style="stop-color:#FCF4EA"></stop>
				<stop offset="0.0401" style="stop-color:#F5DDBE"></stop>
				<stop offset="0.0703" style="stop-color:#EFC898"></stop>
				<stop offset="0.1023" style="stop-color:#EAB777"></stop>
				<stop offset="0.1366" style="stop-color:#E6A95D"></stop>
				<stop offset="0.1741" style="stop-color:#E39E48"></stop>
				<stop offset="0.2164" style="stop-color:#E1973A"></stop>
				<stop offset="0.2675" style="stop-color:#DF9232"></stop>
				<stop offset="0.3515" style="stop-color:#DF912F"></stop>
				<stop offset="0.8242" style="stop-color:#A24725"></stop>
				<stop offset="1" style="stop-color:#A24725"></stop>
			</radialGradient>
			<path fill-rule="evenodd" clip-rule="evenodd" fill="#28a745
" d="M44.911,53.593c3.215,4.304,7.141,7.562,12.02,9.409     c-3.951,2.301-9.352,1.545-12.027-0.415C44.253,59.146,44.615,56.392,44.911,53.593z" data-part-id="logo__item--logo_0__14"></path>
			
				<radialGradient id="SVGID_14_" cx="-58.627" cy="-231.2832" r="39.2369" gradientTransform="matrix(0.9823 -0.1875 0.1875 0.9823 149.0663 255.4096)" gradientUnits="userSpaceOnUse">
				<stop offset="0" style="stop-color:#FFFFFF"></stop>
				<stop offset="0.012" style="stop-color:#FCF4EA"></stop>
				<stop offset="0.0401" style="stop-color:#F5DDBE"></stop>
				<stop offset="0.0703" style="stop-color:#EFC898"></stop>
				<stop offset="0.1023" style="stop-color:#EAB777"></stop>
				<stop offset="0.1366" style="stop-color:#E6A95D"></stop>
				<stop offset="0.1741" style="stop-color:#E39E48"></stop>
				<stop offset="0.2164" style="stop-color:#E1973A"></stop>
				<stop offset="0.2675" style="stop-color:#DF9232"></stop>
				<stop offset="0.3515" style="stop-color:#DF912F"></stop>
				<stop offset="0.8242" style="stop-color:#A24725"></stop>
				<stop offset="1" style="stop-color:#A24725"></stop>
			</radialGradient>
			<path fill-rule="evenodd" clip-rule="evenodd" fill="#28a745
" d="M63.812,52.573c0.23,2.388-1.583,6.272-3.49,8.18     c-0.633,0.633-2.08,1.891-2.697,1.993c-1.179,0.193-3.218-1.322-4.184-1.91c-1.463-0.896-2.475-1.665-3.683-2.5     C55.504,57.53,60.539,55.397,63.812,52.573z" data-part-id="logo__item--logo_0__15"></path>
		</g>
	</g>
</g>

    </g>
</g></svg>
